<svg id="Layer_1" xmlns="http://www.w3.org/2000/svg" viewBox="0 0 960 640">
  <style>
    .st0{fill:#28A197;} .st1{fill:#FFD419;} .st2{fill:#004A1E;} .st3{fill:#DADADA;} .st4{fill:#FFFFFF;} .st5{fill:#0B0B0B;} .st6{fill:#005EA5;} .st7{fill:#006435;} .st8{fill:none;stroke:#8C8C8C;stroke-miterlimit:10;} .st9{fill:#00823B;} .st10{fill:#8C8C8C;} .st11{fill:#DE0000;} .st12{fill:#6E6E6E;} .st13{fill:#F8F8F8;} .st14{fill:#DEE0E2;} .st15{clip-path:url(#SVGID_2_);} .st16{clip-path:url(#SVGID_2_);fill:#0B0B0B;} .st17{clip-path:url(#SVGID_2_);fill:#DE0000;} .st18{fill:#881516;} .st19{fill:#B10E1E;} .st20{opacity:0.5;} .st21{fill:#8C8C8C;stroke:#B4B4B4;stroke-width:8;stroke-miterlimit:10;} .st22{fill:#FFBF47;} .st23{font-family:&apos;NTA-Light&apos;;} .st24{font-size:32px;} .st25{font-size:30px;} .st26{fill:none;stroke:#000000;stroke-width:2;stroke-miterlimit:10;} .st27{fill:none;stroke:#000000;stroke-width:2;stroke-miterlimit:10;stroke-dasharray:6,6;}
  </style>
  <path class="st3" d="M.3 1.1h959.5V72H.3zM.3 569h959.5v70.9H.3z"/>
  <circle cx="480" cy="320" r="102.1"/>
  <text transform="translate(394.75 332.432)" class="st4 st23 st24">
    GOV.UK Pay
  </text>
  <path d="M79.8 44.9c-.4-.7-4.1-7-19.6-7-15.5 0-19.2 6.3-19.6 7l-.3.5v15.9H80V45.4l-.2-.5zM60.2 11.9c-5.9 0-10.7 4.8-10.7 10.7 0 5.9 4.8 10.7 10.7 10.7 5.9 0 10.7-4.8 10.7-10.7 0-5.9-4.8-10.7-10.7-10.7zM917.5 23.7l-4.6-4.3-2.2-2-2.1 2.2-17.9 19.2-7.2-6.3-2.3-1.9-2 2.2-4.1 4.8-1.9 2.2 2.3 2 13.9 12.1 2.2 1.9 2-2.1 24-25.8 2-2.2z"/>
  <circle cx="478.3" cy="36.6" r="27.8"/>
  <text transform="translate(469.366 45.846)" class="st4 st23 st25">
    £
  </text>
  <g>
    <path class="st26" d="M526.4 36.6h309"/>
    <path d="M832.8 45.6l15.6-9-15.6-9z"/>
  </g>
  <g>
    <path class="st26" d="M108.3 36.6h309"/>
    <path d="M414.7 45.6l15.6-9-15.6-9z"/>
  </g>
  <g>
    <path class="st27" d="M480 102.9v84.2"/>
    <path d="M471 105.5l9-15.5 9 15.5zM471 184.4l9 15.6 9-15.6z"/>
  </g>
  <g>
    <path class="st27" d="M480 453.4v84.2"/>
    <path d="M471 456.1l9-15.6 9 15.6zM471 535l9 15.5 9-15.5z"/>
  </g>
  <text transform="translate(242.346 614.472)" class="st23 st24">
    Service case management system
  </text>
  <text transform="translate(40.35 117.648)" class="st23 st24">
    Service user journey
  </text>
  <path class="st3" d="M4 638V8.1h952V638h4V3.9H0V638z"/>
</svg>
