<?xml version="1.0" encoding="utf-8"?>
<!-- Generator: Adobe Illustrator 20.1.0, SVG Export Plug-In . SVG Version: 6.00 Build 0)  -->
<svg version="1.1" id="Layer_1" xmlns="http://www.w3.org/2000/svg" xmlns:xlink="http://www.w3.org/1999/xlink" x="0px" y="0px"
	 viewBox="0 0 960 640" style="enable-background:new 0 0 960 640;" xml:space="preserve">
<style type="text/css">
	.st0{fill:#28A197;}
	.st1{fill:#FFD419;}
	.st2{fill:#004A1E;}
	.st3{fill:#DADADA;}
	.st4{fill:#FFFFFF;}
	.st5{fill:#0B0B0B;}
	.st6{fill:#005EA5;}
	.st7{fill:#006435;}
	.st8{fill:none;stroke:#8C8C8C;stroke-miterlimit:10;}
	.st9{fill:#00823B;}
	.st10{fill:#8C8C8C;}
	.st11{fill:#DE0000;}
	.st12{fill:#6E6E6E;}
	.st13{fill:#F8F8F8;}
	.st14{fill:#DEE0E2;}
	.st15{clip-path:url(#SVGID_2_);}
	.st16{clip-path:url(#SVGID_2_);fill:#0B0B0B;}
	.st17{clip-path:url(#SVGID_2_);fill:#DE0000;}
	.st18{fill:#881516;}
	.st19{fill:#B10E1E;}
	.st20{opacity:0.5;}
	.st21{fill:#8C8C8C;stroke:#B4B4B4;stroke-width:8;stroke-miterlimit:10;}
	.st22{fill:#FFBF47;}
	.st23{fill:none;stroke:#000000;stroke-width:2;stroke-miterlimit:10;}
	.st24{fill:none;stroke:#000000;stroke-width:2;stroke-miterlimit:10;stroke-dasharray:6,6;}
</style>
<rect x="0.3" y="1.1" class="st3" width="959.5" height="70.9"/>
<rect x="0.3" y="569" class="st3" width="959.5" height="70.9"/>
<g>
	<circle cx="480" cy="320" r="102.1"/>
	<g>
		<path class="st4" d="M412.5,324v-1.1h-6.3v-2.3h8.7v11.8h-2.5v-3c-1.5,2.5-3.7,3.3-6.2,3.3c-6.1,0-9.6-5.1-9.6-11.5
			s3.7-11.5,9.8-11.5c3.7,0,6.7,1.9,8.3,4.6l-2.3,1.2c-1.1-2.1-3-3.5-5.9-3.5c-4.7,0-6.8,4.3-6.8,8.9v0.4c0,4.6,2.2,8.9,6.9,8.9
			C411.3,330.4,412.5,326.5,412.5,324z"/>
		<path class="st4" d="M428.8,309.7c6,0,9.8,5.1,9.8,11.5s-3.7,11.5-9.8,11.5s-9.8-5.1-9.8-11.5S422.8,309.7,428.8,309.7z
			 M435.7,321c0-4.6-2.1-8.9-6.9-8.9s-6.9,4.3-6.9,8.9v0.4c0,4.6,2.1,8.9,6.9,8.9s6.9-4.3,6.9-8.9V321z"/>
		<path class="st4" d="M447.2,332.4l-6.6-22.4h2.9l5.5,19.8l5.5-19.8h2.9l-6.6,22.4H447.2z"/>
		<path class="st4" d="M461,328.5c1.2,0,2.1,1,2.1,2.1c0,1.2-1,2.1-2.1,2.1s-2.1-1-2.1-2.1C458.8,329.4,459.8,328.5,461,328.5z"/>
		<path class="st4" d="M481.1,324.5V310h2.7v14.7c0,4.9-3.6,8-8.3,8c-4.6,0-8.3-3.1-8.3-8V310h2.7v14.4c0,4.2,2.7,5.9,5.5,5.9
			C478.4,330.4,481.1,328.7,481.1,324.5z"/>
		<path class="st4" d="M489.6,310h2.8v12l9.7-12h3.4l-7.3,8.8l8.1,13.6h-3.2l-6.7-11.6l-3.9,4.8v6.8h-2.8V310z"/>
		<path class="st4" d="M518.4,310h7.9c4.2,0,6.9,2.9,6.9,7c0,4.2-3,7-7.3,7h-4.8v8.4h-2.8V310z M525.7,312.4h-4.5v9.3h4.5
			c2.9,0,4.6-1.9,4.6-4.5V317C530.3,314.4,528.6,312.4,525.7,312.4z"/>
		<path class="st4" d="M541.2,332.8c-3.2,0-5.6-1.9-5.6-4.8c0-2.5,1.7-4.2,4.3-4.5l5.6-0.8v-1c0-2.4-1.6-3.2-3.6-3.2
			c-1.8,0-3.4,0.6-4.6,1.2l-1-2.1c1.8-1,3.9-1.5,5.9-1.5c3.9,0,5.9,1.7,5.9,5.1v7.5c0,1.1,0.4,1.8,1.3,2.2l-1.5,1.9
			c-1-0.3-1.8-1-2.1-1.9C544.9,331.9,543.4,332.8,541.2,332.8z M541.3,325.3c-1.8,0.3-2.9,0.8-2.9,2.5c0,1.9,1.5,2.9,3.3,2.9
			c2,0,3.9-1.2,3.9-3.1v-2.9L541.3,325.3z"/>
		<path class="st4" d="M550.8,316.5h3l3.9,13.2l3.7-13.2h2.9l-5.8,18.4c-0.7,2.2-2.3,2.8-4.2,2.8c-0.9,0-1.8-0.1-2.8-0.3l0.4-2.3
			c0,0,1.1,0.2,2.1,0.2c1.2,0,1.8-0.5,2-1.6l0.2-0.7L550.8,316.5z"/>
	</g>
</g>
<g>
	<g>
		<g>
			<g>
				<path d="M79.8,44.9c-0.4-0.7-4.1-7-19.6-7c-15.5,0-19.2,6.3-19.6,7l-0.3,0.5v15.9H80V45.4L79.8,44.9z"/>
			</g>
			<g>
				<path d="M60.2,11.9c-5.9,0-10.7,4.8-10.7,10.7c0,5.9,4.8,10.7,10.7,10.7c5.9,0,10.7-4.8,10.7-10.7
					C70.9,16.7,66.1,11.9,60.2,11.9z"/>
			</g>
		</g>
	</g>
	<polygon points="917.5,23.7 912.9,19.4 910.7,17.4 908.6,19.6 890.7,38.8 883.5,32.5 881.2,30.6 879.2,32.8 875.1,37.6 873.2,39.8 
		875.5,41.8 889.4,53.9 891.6,55.8 893.6,53.7 917.6,27.9 919.6,25.7 	"/>
	<g>
		<circle cx="478.3" cy="36.6" r="27.8"/>
		<g>
			<path class="st4" d="M482.8,28.7c-0.7-1.1-1.9-1.9-3.6-1.9c-2.2,0-3.8,1.7-3.8,4.4v3.3h4.9v2.2h-4.9v6.9h9.4v2.2h-13.5v-2.2h1.6
				v-6.9h-1.6v-2.2h1.6v-3.2c0-4.2,2.5-6.7,6.4-6.7c2.6,0,4.5,0.9,5.7,2.6L482.8,28.7z"/>
		</g>
	</g>
	<g>
		<g>
			<line class="st23" x1="526.4" y1="36.6" x2="835.4" y2="36.6"/>
			<g>
				<polygon points="832.8,45.6 848.4,36.6 832.8,27.6 				"/>
			</g>
		</g>
	</g>
	<g>
		<g>
			<line class="st23" x1="108.3" y1="36.6" x2="417.3" y2="36.6"/>
			<g>
				<polygon points="414.7,45.6 430.3,36.6 414.7,27.6 				"/>
			</g>
		</g>
	</g>
</g>
<g>
	<g>
		<line class="st24" x1="480" y1="102.9" x2="480" y2="187.1"/>
		<g>
			<polygon points="471,105.5 480,90 489,105.5 			"/>
		</g>
		<g>
			<polygon points="471,184.4 480,200 489,184.4 			"/>
		</g>
	</g>
</g>
<g>
	<g>
		<line class="st24" x1="480" y1="453.4" x2="480" y2="537.6"/>
		<g>
			<polygon points="471,456.1 480,440.5 489,456.1 			"/>
		</g>
		<g>
			<polygon points="471,535 480,550.5 489,535 			"/>
		</g>
	</g>
</g>
<g>
	<path d="M246,609.5c1.5,1.8,3.7,2.9,6.3,2.9c2.7,0,5.1-1.4,5.1-4c0-1.7-0.9-2.5-2.1-3.1c-2.2-1.1-5.7-1.1-8.1-2.6
		c-1.4-0.9-2.6-2.3-2.6-4.7c0-3.5,2.9-6.2,7.6-6.2c2.9,0,5.7,1.2,7.4,3l-2,1.6c-1.2-1.2-3-2.3-5.4-2.3c-2.7,0-4.9,1.3-4.9,3.7
		c0,3.6,5.3,3.2,9.2,4.9c2,0.9,3.7,2.4,3.7,5.3c0,4.4-4,6.7-8.1,6.7c-3.7,0-6.4-1.6-8.2-3.5L246,609.5z"/>
	<path d="M266.1,607.3c0.2,3,2.1,5.2,5,5.2c1.8,0,3.1-0.7,4.2-1.6l1.3,1.9c-1.4,1.2-3.3,2-5.7,2c-4.6,0-7.6-3.5-7.6-8.3
		c0-4.9,2.8-8.3,7.3-8.3c4.2,0,6.8,3.5,6.8,8.3v0.8H266.1z M266.2,605.2h8.4c-0.1-2.5-1.5-4.7-4-4.7
		C268,600.5,266.3,602.8,266.2,605.2z"/>
	<path d="M289.4,600.8h-0.4c-2.7,0-5.1,1.1-5.1,5.4v8.2h-2.6v-16h2.6v2.5c0.8-1.9,2.8-2.8,4.8-2.8h0.8V600.8z"/>
	<path d="M296.7,614.5l-5.1-16h3l3.8,13.5l3.8-13.5h3l-5.1,16H296.7z"/>
	<path d="M309.7,592.1c1.1,0,1.9,0.9,1.9,2c0,1.1-0.9,2-1.9,2c-1.1,0-2-0.9-2-2C307.7,593,308.6,592.1,309.7,592.1z M311,614.5h-2.6
		v-16h2.6V614.5z"/>
	<path d="M317.4,606.6c0,3.2,1.6,5.9,4.6,5.9c2,0,3.3-1.2,4.1-2.7l2.2,1.2c-1.1,2.3-3.4,3.7-6.3,3.7c-4.4,0-7.4-3.5-7.4-8.3
		c0-4.9,2.9-8.3,7.4-8.3c2.9,0,5.2,1.5,6.3,3.7l-2.2,1.2c-0.8-1.5-2.1-2.7-4.1-2.7c-3.1,0-4.6,2.7-4.6,5.9V606.6z"/>
	<path d="M333.6,607.3c0.2,3,2.1,5.2,5,5.2c1.8,0,3.1-0.7,4.2-1.6l1.3,1.9c-1.4,1.2-3.3,2-5.7,2c-4.6,0-7.6-3.5-7.6-8.3
		c0-4.9,2.8-8.3,7.3-8.3c4.2,0,6.8,3.5,6.8,8.3v0.8H333.6z M333.6,605.2h8.4c-0.1-2.5-1.5-4.7-4-4.7
		C335.4,600.5,333.8,602.8,333.6,605.2z"/>
	<path d="M359.1,606.6c0,3.2,1.6,5.9,4.6,5.9c2,0,3.3-1.2,4.1-2.7l2.2,1.2c-1.1,2.3-3.4,3.7-6.3,3.7c-4.4,0-7.4-3.5-7.4-8.3
		c0-4.9,2.9-8.3,7.4-8.3c2.9,0,5.2,1.5,6.3,3.7l-2.2,1.2c-0.8-1.5-2.1-2.7-4.1-2.7c-3.1,0-4.6,2.7-4.6,5.9V606.6z"/>
	<path d="M378.3,614.8c-3.2,0-5.6-1.9-5.6-4.8c0-2.5,1.7-4.2,4.3-4.5l5.6-0.8v-1c0-2.4-1.6-3.2-3.6-3.2c-1.8,0-3.4,0.6-4.6,1.2
		l-1-2.1c1.8-1,3.9-1.5,5.9-1.5c3.9,0,5.9,1.7,5.9,5.1v7.5c0,1.1,0.4,1.8,1.3,2.2l-1.5,1.9c-1-0.3-1.8-1-2.1-1.9
		C382,614,380.5,614.8,378.3,614.8z M378.4,607.4c-1.8,0.3-2.9,0.8-2.9,2.5c0,1.9,1.5,2.9,3.3,2.9c2,0,3.9-1.2,3.9-3.1v-2.9
		L378.4,607.4z"/>
	<path d="M389.1,612.5l1.6-1.9c1,0.9,2.7,2,4.8,2c1.8,0,3.2-0.8,3.2-2.4c0-1.7-1.7-2.1-3.9-2.7c-2.3-0.6-5-1.4-5-4.7
		c0-2.7,2.5-4.6,5.8-4.6c2.1,0,4.4,0.9,5.5,2l-1.5,1.8c-0.9-0.9-2.3-1.5-3.9-1.5c-2.1,0-3.2,0.9-3.2,2.4c0,1.2,0.9,1.7,2.3,2.1
		c0.8,0.2,1.8,0.5,2.6,0.8c2.1,0.7,3.9,1.8,3.9,4.4c0,3.3-2.9,4.8-6,4.8C393.3,614.8,390.9,614.1,389.1,612.5z"/>
	<path d="M407,607.3c0.2,3,2.1,5.2,5,5.2c1.8,0,3.1-0.7,4.2-1.6l1.3,1.9c-1.4,1.2-3.3,2-5.7,2c-4.6,0-7.6-3.5-7.6-8.3
		c0-4.9,2.8-8.3,7.3-8.3c4.2,0,6.8,3.5,6.8,8.3v0.8H407z M407.1,605.2h8.4c-0.1-2.5-1.5-4.7-4-4.7
		C408.9,600.5,407.2,602.8,407.1,605.2z"/>
	<path d="M442.7,614.5h-2.6v-10c0-2.8-1.4-3.8-3.2-3.8c-1.8,0-3.5,1.3-3.5,4.4v9.4h-2.6v-16h2.6v1.8c1.1-1.5,2.5-2.1,4.2-2.1
		c1.4,0,3.5,0.7,4.3,2.7c1.2-2,3.1-2.7,4.9-2.7c3.5,0,5.4,2.5,5.4,5.3v10.9h-2.6v-10c0-2.8-1.5-3.8-3.3-3.8c-1.8,0-3.5,1.3-3.5,4.4
		V614.5z"/>
	<path d="M461.1,614.8c-3.2,0-5.6-1.9-5.6-4.8c0-2.5,1.7-4.2,4.3-4.5l5.6-0.8v-1c0-2.4-1.6-3.2-3.6-3.2c-1.8,0-3.4,0.6-4.6,1.2
		l-1-2.1c1.8-1,3.9-1.5,5.9-1.5c3.9,0,5.9,1.7,5.9,5.1v7.5c0,1.1,0.4,1.8,1.3,2.2l-1.5,1.9c-1-0.3-1.8-1-2.1-1.9
		C464.8,614,463.3,614.8,461.1,614.8z M461.1,607.4c-1.8,0.3-2.9,0.8-2.9,2.5c0,1.9,1.5,2.9,3.3,2.9c2,0,3.9-1.2,3.9-3.1v-2.9
		L461.1,607.4z"/>
	<path d="M472.8,598.5h2.6v1.8c1.1-1.5,2.7-2.1,4.7-2.1c3.6,0,5.3,2.5,5.3,5.4v10.8h-2.6v-10c0-2.8-1.4-3.9-3.3-3.9
		c-2,0-4.1,1.4-4.1,4.4v9.5h-2.6V598.5z"/>
	<path d="M494.5,614.8c-3.2,0-5.6-1.9-5.6-4.8c0-2.5,1.7-4.2,4.3-4.5l5.6-0.8v-1c0-2.4-1.6-3.2-3.6-3.2c-1.8,0-3.4,0.6-4.6,1.2
		l-1-2.1c1.8-1,3.9-1.5,5.9-1.5c3.9,0,5.9,1.7,5.9,5.1v7.5c0,1.1,0.4,1.8,1.3,2.2l-1.5,1.9c-1-0.3-1.8-1-2.1-1.9
		C498.2,614,496.6,614.8,494.5,614.8z M494.5,607.4c-1.8,0.3-2.9,0.8-2.9,2.5c0,1.9,1.5,2.9,3.3,2.9c2,0,3.9-1.2,3.9-3.1v-2.9
		L494.5,607.4z"/>
	<path d="M511.5,598.2c1.7,0,3.4,0.6,4.5,2.1v-1.8h2.6v16.1c0,4-3.5,5.1-6.8,5.1c-1.9,0-4.1-0.4-5.9-1.3l0.9-2.2
		c1.2,0.6,3.2,1.1,5.1,1.1c2.7,0,4.2-1,4.2-3.5v-3c-1.1,1.5-2.8,2.1-4.5,2.1c-4,0-6.5-3.2-6.5-7.4
		C505,601.4,507.5,598.2,511.5,598.2z M516.1,605.5c0-2.8-1.2-5-4.1-5c-2.9,0-4.2,2.2-4.2,5v0.1c0,2.8,1.3,5,4.2,5
		c2.9,0,4.1-2.2,4.1-5V605.5z"/>
	<path d="M525.3,607.3c0.2,3,2.1,5.2,5,5.2c1.8,0,3.1-0.7,4.2-1.6l1.3,1.9c-1.4,1.2-3.3,2-5.7,2c-4.6,0-7.6-3.5-7.6-8.3
		c0-4.9,2.8-8.3,7.3-8.3c4.2,0,6.8,3.5,6.8,8.3v0.8H525.3z M525.3,605.2h8.4c-0.1-2.5-1.5-4.7-4-4.7
		C527.1,600.5,525.4,602.8,525.3,605.2z"/>
	<path d="M552.3,614.5h-2.6v-10c0-2.8-1.4-3.8-3.2-3.8c-1.8,0-3.5,1.3-3.5,4.4v9.4h-2.6v-16h2.6v1.8c1.1-1.5,2.5-2.1,4.2-2.1
		c1.4,0,3.5,0.7,4.3,2.7c1.2-2,3.1-2.7,4.9-2.7c3.5,0,5.4,2.5,5.4,5.3v10.9h-2.6v-10c0-2.8-1.5-3.8-3.3-3.8c-1.8,0-3.5,1.3-3.5,4.4
		V614.5z"/>
	<path d="M568.2,607.3c0.2,3,2.1,5.2,5,5.2c1.8,0,3.1-0.7,4.2-1.6l1.3,1.9c-1.4,1.2-3.3,2-5.7,2c-4.6,0-7.6-3.5-7.6-8.3
		c0-4.9,2.8-8.3,7.3-8.3c4.2,0,6.8,3.5,6.8,8.3v0.8H568.2z M568.3,605.2h8.4c-0.1-2.5-1.5-4.7-4-4.7
		C570.1,600.5,568.4,602.8,568.3,605.2z"/>
	<path d="M583.3,598.5h2.6v1.8c1.1-1.5,2.7-2.1,4.7-2.1c3.6,0,5.3,2.5,5.3,5.4v10.8h-2.6v-10c0-2.8-1.4-3.9-3.3-3.9
		c-2,0-4.1,1.4-4.1,4.4v9.5h-2.6V598.5z"/>
	<path d="M604.4,610.5c0,1.1,0.2,2,2,2c0.5,0,1.5-0.1,2-0.2l0.3,2.3c0,0-1.5,0.2-2.8,0.2c-2.5,0-4.1-1-4.1-3.7v-10.3h-3v-2.3h3v-5.2
		l2.6-0.9v6.1h4.4v2.3h-4.4V610.5z"/>
	<path d="M619.4,612.5l1.6-1.9c1,0.9,2.7,2,4.8,2c1.8,0,3.2-0.8,3.2-2.4c0-1.7-1.7-2.1-3.9-2.7c-2.3-0.6-5-1.4-5-4.7
		c0-2.7,2.5-4.6,5.8-4.6c2.1,0,4.4,0.9,5.5,2l-1.5,1.8c-0.9-0.9-2.3-1.5-3.9-1.5c-2.1,0-3.2,0.9-3.2,2.4c0,1.2,0.9,1.7,2.3,2.1
		c0.8,0.2,1.8,0.5,2.6,0.8c2.1,0.7,3.9,1.8,3.9,4.4c0,3.3-2.9,4.8-6,4.8C623.6,614.8,621.2,614.1,619.4,612.5z"/>
	<path d="M634,598.5h3l3.9,13.2l3.7-13.2h2.9l-5.8,18.4c-0.7,2.2-2.3,2.8-4.2,2.8c-0.9,0-1.8-0.1-2.8-0.3l0.4-2.3
		c0,0,1.1,0.2,2.1,0.2c1.2,0,1.8-0.5,2-1.6l0.2-0.7L634,598.5z"/>
	<path d="M649.2,612.5l1.6-1.9c1,0.9,2.7,2,4.8,2c1.8,0,3.2-0.8,3.2-2.4c0-1.7-1.7-2.1-3.9-2.7c-2.3-0.6-5-1.4-5-4.7
		c0-2.7,2.5-4.6,5.8-4.6c2.1,0,4.4,0.9,5.5,2l-1.5,1.8c-0.9-0.9-2.3-1.5-3.9-1.5c-2.1,0-3.2,0.9-3.2,2.4c0,1.2,0.9,1.7,2.3,2.1
		c0.8,0.2,1.8,0.5,2.6,0.8c2.1,0.7,3.9,1.8,3.9,4.4c0,3.3-2.9,4.8-6,4.8C653.3,614.8,650.9,614.1,649.2,612.5z"/>
	<path d="M669.7,610.5c0,1.1,0.2,2,2,2c0.5,0,1.5-0.1,2-0.2l0.3,2.3c0,0-1.5,0.2-2.8,0.2c-2.5,0-4.1-1-4.1-3.7v-10.3h-3v-2.3h3v-5.2
		l2.6-0.9v6.1h4.4v2.3h-4.4V610.5z"/>
	<path d="M678.8,607.3c0.2,3,2.1,5.2,5,5.2c1.8,0,3.1-0.7,4.2-1.6l1.3,1.9c-1.4,1.2-3.3,2-5.7,2c-4.6,0-7.6-3.5-7.6-8.3
		c0-4.9,2.8-8.3,7.3-8.3c4.2,0,6.8,3.5,6.8,8.3v0.8H678.8z M678.8,605.2h8.4c-0.1-2.5-1.5-4.7-4-4.7
		C680.6,600.5,678.9,602.8,678.8,605.2z"/>
	<path d="M705.8,614.5h-2.6v-10c0-2.8-1.4-3.8-3.2-3.8c-1.8,0-3.5,1.3-3.5,4.4v9.4h-2.6v-16h2.6v1.8c1.1-1.5,2.5-2.1,4.2-2.1
		c1.4,0,3.5,0.7,4.3,2.7c1.2-2,3.1-2.7,4.9-2.7c3.5,0,5.4,2.5,5.4,5.3v10.9h-2.6v-10c0-2.8-1.5-3.8-3.3-3.8c-1.8,0-3.5,1.3-3.5,4.4
		V614.5z"/>
</g>
<g>
	<path d="M44,112.7c1.5,1.8,3.7,2.9,6.3,2.9c2.7,0,5.1-1.4,5.1-4c0-1.7-0.9-2.5-2.1-3.1c-2.2-1.1-5.7-1.1-8.1-2.6
		c-1.4-0.9-2.6-2.3-2.6-4.7c0-3.5,2.9-6.2,7.6-6.2c2.9,0,5.7,1.2,7.4,3l-2,1.6c-1.2-1.2-3-2.3-5.4-2.3c-2.7,0-4.9,1.3-4.9,3.7
		c0,3.6,5.3,3.2,9.2,4.9c2,0.9,3.7,2.4,3.7,5.3c0,4.4-4,6.7-8.1,6.7c-3.7,0-6.4-1.6-8.2-3.5L44,112.7z"/>
	<path d="M64.1,110.5c0.2,3,2.1,5.2,5,5.2c1.8,0,3.1-0.7,4.2-1.6l1.3,1.9c-1.4,1.2-3.3,2-5.7,2c-4.6,0-7.6-3.5-7.6-8.3
		c0-4.9,2.8-8.3,7.3-8.3c4.2,0,6.8,3.5,6.8,8.3v0.8H64.1z M64.2,108.4h8.4c-0.1-2.5-1.5-4.7-4-4.7C66,103.7,64.3,105.9,64.2,108.4z"
		/>
	<path d="M87.4,104H87c-2.7,0-5.1,1.1-5.1,5.4v8.2h-2.6v-16h2.6v2.5c0.8-1.9,2.8-2.8,4.8-2.8h0.8V104z"/>
	<path d="M94.7,117.6l-5.1-16h3l3.8,13.5l3.8-13.5h3l-5.1,16H94.7z"/>
	<path d="M107.7,95.2c1.1,0,1.9,0.9,1.9,2c0,1.1-0.9,2-1.9,2c-1.1,0-2-0.9-2-2C105.7,96.1,106.6,95.2,107.7,95.2z M109,117.6h-2.6
		v-16h2.6V117.6z"/>
	<path d="M115.4,109.7c0,3.2,1.6,5.9,4.6,5.9c2,0,3.3-1.2,4.1-2.7l2.2,1.2c-1.1,2.3-3.4,3.7-6.3,3.7c-4.4,0-7.4-3.5-7.4-8.3
		c0-4.9,2.9-8.3,7.4-8.3c2.9,0,5.2,1.5,6.3,3.7l-2.2,1.2c-0.8-1.5-2.1-2.7-4.1-2.7c-3.1,0-4.6,2.7-4.6,5.9V109.7z"/>
	<path d="M131.6,110.5c0.2,3,2.1,5.2,5,5.2c1.8,0,3.1-0.7,4.2-1.6l1.3,1.9c-1.4,1.2-3.3,2-5.7,2c-4.6,0-7.6-3.5-7.6-8.3
		c0-4.9,2.8-8.3,7.3-8.3c4.2,0,6.8,3.5,6.8,8.3v0.8H131.6z M131.6,108.4h8.4c-0.1-2.5-1.5-4.7-4-4.7
		C133.4,103.7,131.8,105.9,131.6,108.4z"/>
	<path d="M167.8,117.6h-2.6v-1.8c-1.1,1.5-2.7,2.1-4.7,2.1c-3.6,0-5.3-2.5-5.3-5.4v-10.8h2.6v10c0,2.8,1.4,3.9,3.3,3.9
		c2.2,0,4.1-1.4,4.1-4.4v-9.5h2.6V117.6z"/>
	<path d="M171.1,115.7l1.6-1.9c1,0.9,2.7,2,4.8,2c1.8,0,3.2-0.8,3.2-2.4c0-1.7-1.7-2.1-3.9-2.7c-2.3-0.6-5-1.4-5-4.7
		c0-2.7,2.5-4.6,5.8-4.6c2.1,0,4.4,0.9,5.5,2l-1.5,1.8c-0.9-0.9-2.3-1.5-3.9-1.5c-2.1,0-3.2,0.9-3.2,2.4c0,1.2,0.9,1.7,2.3,2.1
		c0.8,0.2,1.8,0.5,2.6,0.8c2.1,0.7,3.9,1.8,3.9,4.4c0,3.3-2.9,4.8-6,4.8C175.3,118,172.9,117.2,171.1,115.7z"/>
	<path d="M189,110.5c0.2,3,2.1,5.2,5,5.2c1.8,0,3.1-0.7,4.2-1.6l1.3,1.9c-1.4,1.2-3.3,2-5.7,2c-4.6,0-7.6-3.5-7.6-8.3
		c0-4.9,2.8-8.3,7.3-8.3c4.2,0,6.8,3.5,6.8,8.3v0.8H189z M189,108.4h8.4c-0.1-2.5-1.5-4.7-4-4.7C190.8,103.7,189.2,105.9,189,108.4z
		"/>
	<path d="M212.2,104h-0.4c-2.7,0-5.1,1.1-5.1,5.4v8.2h-2.6v-16h2.6v2.5c0.8-1.9,2.8-2.8,4.8-2.8h0.8V104z"/>
	<path d="M226.6,120.2c0,2.1-1.6,2.7-3,2.7c-1,0-2-0.2-2.3-0.2l0.4-2.1c0.3,0.1,0.9,0.1,1.1,0.1c1.2,0,1.2-0.5,1.2-1.3v-17.6h2.6
		V120.2z M225.4,95.2c1.1,0,1.9,0.9,1.9,2c0,1.1-0.9,2-1.9,2c-1.1,0-2-0.9-2-2C223.4,96.1,224.3,95.2,225.4,95.2z"/>
	<path d="M245.1,109.7c0,4.8-2.9,8.3-7.4,8.3c-4.4,0-7.4-3.5-7.4-8.3c0-4.9,2.9-8.3,7.4-8.3C242.2,101.4,245.1,104.8,245.1,109.7z
		 M242.4,109.8v-0.2c0-3.2-1.6-5.9-4.6-5.9c-3,0-4.6,2.7-4.6,5.9v0.2c0,3.1,1.6,5.9,4.6,5.9C240.8,115.7,242.4,112.9,242.4,109.8z"
		/>
	<path d="M261.4,117.6h-2.6v-1.8c-1.1,1.5-2.7,2.1-4.7,2.1c-3.6,0-5.3-2.5-5.3-5.4v-10.8h2.6v10c0,2.8,1.4,3.9,3.3,3.9
		c2.2,0,4.1-1.4,4.1-4.4v-9.5h2.6V117.6z"/>
	<path d="M274.3,104h-0.4c-2.7,0-5.1,1.1-5.1,5.4v8.2h-2.6v-16h2.6v2.5c0.8-1.9,2.8-2.8,4.8-2.8h0.8V104z"/>
	<path d="M277.4,101.7h2.6v1.8c1.1-1.5,2.7-2.1,4.7-2.1c3.6,0,5.3,2.5,5.3,5.4v10.8h-2.6v-10c0-2.8-1.4-3.9-3.3-3.9
		c-2,0-4.1,1.4-4.1,4.4v9.5h-2.6V101.7z"/>
	<path d="M296.5,110.5c0.2,3,2.1,5.2,5,5.2c1.8,0,3.1-0.7,4.2-1.6l1.3,1.9c-1.4,1.2-3.3,2-5.7,2c-4.6,0-7.6-3.5-7.6-8.3
		c0-4.9,2.8-8.3,7.3-8.3c4.2,0,6.8,3.5,6.8,8.3v0.8H296.5z M296.6,108.4h8.4c-0.1-2.5-1.5-4.7-4-4.7
		C298.3,103.7,296.7,105.9,296.6,108.4z"/>
	<path d="M309.4,101.7h3l3.9,13.2l3.7-13.2h2.9l-5.8,18.4c-0.7,2.2-2.3,2.8-4.2,2.8c-0.9,0-1.8-0.1-2.8-0.3l0.4-2.3
		c0,0,1.1,0.2,2.1,0.2c1.2,0,1.8-0.5,2-1.6l0.2-0.7L309.4,101.7z"/>
</g>
<polygon class="st3" points="4,638 4,8.1 956,8.1 956,638 960,638 960,3.9 0,3.9 0,638 "/>
</svg>
