<svg xmlns="http://www.w3.org/2000/svg" viewBox="0 0 1833.22 1284.47">
  <defs>
    <style>
      .cls-1, .cls-38, .cls-39 {
        fill: #fff;
      }

      .cls-2 {
        fill: #9c9b9b;
      }

      .cls-3, .cls-39 {
        font-size: 46.26px;
      }

      .cls-3 {
        fill: #1a171b;
      }

      .cls-11, .cls-3 {
        font-family: NTA-Bold, NTA;
        font-weight: 700;
      }

      .cls-4 {
        letter-spacing: 0em;
      }

      .cls-5 {
        letter-spacing: -0.01em;
      }

      .cls-10, .cls-6, .cls-7, .cls-9 {
        fill: none;
      }

      .cls-6 {
        stroke: #dadada;
        stroke-width: 3px;
      }

      .cls-10, .cls-38, .cls-6, .cls-7, .cls-9 {
        stroke-miterlimit: 10;
      }

      .cls-7 {
        stroke: #1d1d1b;
      }

      .cls-10, .cls-7 {
        stroke-width: 0.5px;
      }

      .cls-8 {
        fill: #a3a3a3;
      }

      .cls-9 {
        stroke: #1a171b;
        stroke-width: 4px;
      }

      .cls-10 {
        stroke: #9c9b9b;
      }

      .cls-11 {
        font-size: 34.08px;
        fill: #1d1d1b;
      }

      .cls-12 {
        letter-spacing: -0.01em;
      }

      .cls-13 {
        letter-spacing: -0.01em;
      }

      .cls-14 {
        fill: #dadada;
      }

      .cls-15 {
        font-size: 32px;
        fill: #1d70b7;
      }

      .cls-15, .cls-39 {
        font-family: NTA-Light, NTA;
      }

      .cls-16 {
        letter-spacing: -0.11em;
      }

      .cls-17 {
        letter-spacing: -0.02em;
      }

      .cls-18 {
        letter-spacing: -0.01em;
      }

      .cls-19 {
        letter-spacing: -0.03em;
      }

      .cls-20 {
        letter-spacing: -0.01em;
      }

      .cls-21 {
        letter-spacing: 0em;
      }

      .cls-22 {
        letter-spacing: 0em;
      }

      .cls-23 {
        letter-spacing: -0.02em;
      }

      .cls-24 {
        letter-spacing: -0.01em;
      }

      .cls-25 {
        letter-spacing: -0.01em;
      }

      .cls-26 {
        letter-spacing: 0em;
      }

      .cls-27 {
        letter-spacing: 0em;
      }

      .cls-28 {
        fill: #0b0b0b;
      }

      .cls-29 {
        letter-spacing: -0.01em;
      }

      .cls-30 {
        letter-spacing: -0.01em;
      }

      .cls-31 {
        letter-spacing: -0.01em;
      }

      .cls-32 {
        letter-spacing: -0.02em;
      }

      .cls-33 {
        letter-spacing: -0.02em;
      }

      .cls-34 {
        letter-spacing: -0.01em;
      }

      .cls-35 {
        letter-spacing: -0.01em;
      }

      .cls-36 {
        letter-spacing: -0.01em;
      }

      .cls-37 {
        letter-spacing: -0.01em;
      }

      .cls-38 {
        stroke: #fff;
      }

      .cls-40 {
        letter-spacing: -0.01em;
      }

      .cls-41 {
        letter-spacing: -0.03em;
      }
    </style>
  </defs>
  <title>payment-link-demo-2</title>
  <g id="Layer_2" data-name="Layer 2">
    <rect class="cls-1" width="965.98" height="1284.47"/>
    <g>
      <path class="cls-2" d="M959.94,5.2V1276.72H6V5.2H959.94M966,0H0V1281.92H966V0Z"/>
      <text class="cls-3" transform="translate(89.63 113.88)">Applic<tspan class="cls-4" x="137.63" y="0">a</tspan><tspan x="162.2" y="0">tion </tspan><tspan class="cls-5" x="258.66" y="0">f</tspan><tspan x="275.32" y="0">orm</tspan></text>
      <rect x="89.59" y="162.85" width="4.78" height="93.01"/>
      <rect x="97.35" y="162.85" width="2.2" height="93.01"/>
      <rect x="105.09" y="162.85" width="7.36" height="93.01"/>
      <rect x="118.01" y="162.85" width="9.95" height="93.01"/>
      <rect x="130.93" y="162.85" width="2.2" height="93.01"/>
      <rect x="136.1" y="162.85" width="7.36" height="93.01"/>
      <path d="M169.29,255.85h-4.78v-93h4.78Zm-7.75,0h-4.78v-93h4.78Zm-10.33,0h-4.78v-93h4.78Z"/>
      <path d="M184.8,255.85h-2.2v-93h2.2Zm-7.75,0h-2.2v-93H177Z"/>
      <rect x="192.93" y="162.85" width="4.78" height="93.01"/>
      <rect x="203.27" y="162.85" width="7.36" height="93.01"/>
      <rect x="213.6" y="162.85" width="9.95" height="93.01"/>
      <path d="M233.88,255.85h-2.2v-93h2.2Zm-5.17,0h-2.2v-93h2.2Z"/>
      <rect x="236.85" y="162.85" width="4.78" height="93.01"/>
      <rect x="247.19" y="162.85" width="7.36" height="93.01"/>
      <path d="M272.63,255.85h-2.2v-93h2.2Zm-10.33,0h-2.2v-93h2.2Z"/>
      <rect x="275.61" y="162.85" width="4.78" height="93.01"/>
      <rect x="288.52" y="162.85" width="7.36" height="93.01"/>
      <rect x="304.02" y="162.85" width="2.2" height="93.01"/>
      <path d="M321.72,255.85h-4.78v-93h4.78Zm-7.75,0h-4.78v-93H314Z"/>
      <path d="M352.72,255.85h-2.2v-93h2.2Zm-5.17,0h-2.2v-93h2.2Zm-7.75,0h-2.2v-93h2.2Zm-5.17,0h-2.2v-93h2.2Z"/>
      <rect x="360.86" y="162.85" width="9.95" height="93.01"/>
      <path d="M383.73,255.85h-2.2v-93h2.2Zm-7.75,0h-2.2v-93H376Z"/>
      <path d="M407,255.85H402.2v-93H407Zm-12.92,0h-4.78v-93h4.78Z"/>
      <rect x="415.11" y="162.85" width="7.36" height="93.01"/>
      <rect x="425.45" y="162.85" width="2.2" height="93.01"/>
      <rect x="430.61" y="162.85" width="4.78" height="93.01"/>
      <polyline class="cls-6" points="48.04 146.36 48.04 45.55 148.85 45.55"/>
      <polyline class="cls-6" points="819.62 45.55 920.44 45.55 920.44 146.36"/>
      <polyline class="cls-6" points="919.19 1140.13 919.19 1240.95 818.38 1240.95"/>
      <polyline class="cls-6" points="147.6 1240.95 46.79 1240.95 46.79 1140.13"/>
      <line class="cls-6" x1="63.09" y1="301.47" x2="897.72" y2="301.47"/>
      <rect class="cls-7" x="91.91" y="376.36" width="27.71" height="27.71"/>
      <rect class="cls-7" x="119.61" y="376.36" width="27.71" height="27.71"/>
      <rect class="cls-7" x="147.32" y="376.36" width="27.71" height="27.71"/>
      <rect class="cls-7" x="175.02" y="376.36" width="27.71" height="27.71"/>
      <rect class="cls-7" x="202.73" y="376.36" width="27.71" height="27.71"/>
      <rect class="cls-7" x="230.44" y="376.36" width="27.71" height="27.71"/>
      <rect class="cls-7" x="258.14" y="376.36" width="27.71" height="27.71"/>
      <rect class="cls-7" x="285.85" y="376.36" width="27.71" height="27.71"/>
      <rect class="cls-7" x="313.56" y="376.36" width="27.71" height="27.71"/>
      <rect class="cls-7" x="341.26" y="376.36" width="27.71" height="27.71"/>
      <rect class="cls-7" x="368.97" y="376.36" width="27.71" height="27.71"/>
      <rect class="cls-7" x="396.68" y="376.36" width="27.71" height="27.71"/>
      <rect class="cls-7" x="424.38" y="376.36" width="27.71" height="27.71"/>
      <rect class="cls-7" x="452.09" y="376.36" width="27.71" height="27.71"/>
      <rect class="cls-7" x="479.8" y="376.36" width="27.71" height="27.71"/>
      <rect class="cls-7" x="507.5" y="376.36" width="27.71" height="27.71"/>
      <rect class="cls-7" x="91.91" y="501.31" width="27.71" height="27.71"/>
      <rect class="cls-7" x="119.61" y="501.31" width="27.71" height="27.71"/>
      <rect class="cls-7" x="147.32" y="501.31" width="27.71" height="27.71"/>
      <rect class="cls-7" x="175.02" y="501.31" width="27.71" height="27.71"/>
      <rect class="cls-7" x="202.73" y="501.31" width="27.71" height="27.71"/>
      <rect class="cls-7" x="230.44" y="501.31" width="27.71" height="27.71"/>
      <rect class="cls-7" x="258.14" y="501.31" width="27.71" height="27.71"/>
      <rect class="cls-7" x="285.85" y="501.31" width="27.71" height="27.71"/>
      <rect class="cls-7" x="313.56" y="501.31" width="27.71" height="27.71"/>
      <rect class="cls-7" x="341.26" y="501.31" width="27.71" height="27.71"/>
      <rect class="cls-7" x="368.97" y="501.31" width="27.71" height="27.71"/>
      <rect class="cls-7" x="396.68" y="501.31" width="27.71" height="27.71"/>
      <rect class="cls-7" x="424.38" y="501.31" width="27.71" height="27.71"/>
      <rect class="cls-7" x="452.09" y="501.31" width="27.71" height="27.71"/>
      <rect class="cls-7" x="479.8" y="501.31" width="27.71" height="27.71"/>
      <rect class="cls-7" x="507.5" y="501.31" width="27.71" height="27.71"/>
      <rect class="cls-7" x="535.21" y="501.31" width="27.71" height="27.71"/>
      <rect class="cls-7" x="562.92" y="501.31" width="27.71" height="27.71"/>
      <rect class="cls-7" x="590.62" y="501.31" width="27.71" height="27.71"/>
      <rect class="cls-7" x="618.33" y="501.31" width="27.71" height="27.71"/>
      <rect class="cls-7" x="646.03" y="501.31" width="27.71" height="27.71"/>
      <rect class="cls-7" x="91.91" y="559.63" width="27.71" height="27.71"/>
      <rect class="cls-7" x="119.61" y="559.63" width="27.71" height="27.71"/>
      <rect class="cls-7" x="147.32" y="559.63" width="27.71" height="27.71"/>
      <rect class="cls-7" x="175.02" y="559.63" width="27.71" height="27.71"/>
      <rect class="cls-7" x="202.73" y="559.63" width="27.71" height="27.71"/>
      <rect class="cls-7" x="230.44" y="559.63" width="27.71" height="27.71"/>
      <rect class="cls-7" x="258.14" y="559.63" width="27.71" height="27.71"/>
      <rect class="cls-7" x="285.85" y="559.63" width="27.71" height="27.71"/>
      <rect class="cls-7" x="313.56" y="559.63" width="27.71" height="27.71"/>
      <rect class="cls-7" x="341.26" y="559.63" width="27.71" height="27.71"/>
      <rect class="cls-7" x="368.97" y="559.63" width="27.71" height="27.71"/>
      <rect class="cls-7" x="396.68" y="559.63" width="27.71" height="27.71"/>
      <rect class="cls-7" x="424.38" y="559.63" width="27.71" height="27.71"/>
      <rect class="cls-7" x="452.09" y="559.63" width="27.71" height="27.71"/>
      <rect class="cls-7" x="479.8" y="559.63" width="27.71" height="27.71"/>
      <rect class="cls-7" x="507.5" y="559.63" width="27.71" height="27.71"/>
      <rect class="cls-7" x="535.21" y="559.63" width="27.71" height="27.71"/>
      <rect class="cls-7" x="562.92" y="559.63" width="27.71" height="27.71"/>
      <rect class="cls-7" x="590.62" y="559.63" width="27.71" height="27.71"/>
      <rect class="cls-7" x="618.33" y="559.63" width="27.71" height="27.71"/>
      <rect class="cls-7" x="646.03" y="559.63" width="27.71" height="27.71"/>
      <rect class="cls-8" x="90.91" y="344.04" width="195.94" height="15.26"/>
      <rect class="cls-8" x="91.91" y="462.8" width="195.94" height="15.26"/>
      <rect class="cls-7" x="91.91" y="671.6" width="27.71" height="27.71"/>
      <rect class="cls-7" x="119.61" y="671.6" width="27.71" height="27.71"/>
      <rect class="cls-7" x="147.32" y="671.6" width="27.71" height="27.71"/>
      <rect class="cls-7" x="175.02" y="671.6" width="27.71" height="27.71"/>
      <rect class="cls-7" x="202.73" y="671.6" width="27.71" height="27.71"/>
      <rect class="cls-7" x="230.44" y="671.6" width="27.71" height="27.71"/>
      <rect class="cls-7" x="258.14" y="671.6" width="27.71" height="27.71"/>
      <rect class="cls-7" x="285.85" y="671.6" width="27.71" height="27.71"/>
      <rect class="cls-7" x="313.56" y="671.6" width="27.71" height="27.71"/>
      <rect class="cls-7" x="341.26" y="671.6" width="27.71" height="27.71"/>
      <rect class="cls-7" x="368.97" y="671.6" width="27.71" height="27.71"/>
      <rect class="cls-7" x="396.68" y="671.6" width="27.71" height="27.71"/>
      <rect class="cls-7" x="424.38" y="671.6" width="27.71" height="27.71"/>
      <rect class="cls-7" x="452.09" y="671.6" width="27.71" height="27.71"/>
      <rect class="cls-7" x="479.8" y="671.6" width="27.71" height="27.71"/>
      <rect class="cls-7" x="507.5" y="671.6" width="27.71" height="27.71"/>
      <rect class="cls-7" x="535.21" y="671.6" width="27.71" height="27.71"/>
      <rect class="cls-7" x="562.92" y="671.6" width="27.71" height="27.71"/>
      <rect class="cls-7" x="590.62" y="671.6" width="27.71" height="27.71"/>
      <rect class="cls-7" x="618.33" y="671.6" width="27.71" height="27.71"/>
      <rect class="cls-7" x="646.03" y="671.6" width="27.71" height="27.71"/>
      <rect class="cls-7" x="91.91" y="729.92" width="27.71" height="27.71"/>
      <rect class="cls-7" x="119.61" y="729.92" width="27.71" height="27.71"/>
      <rect class="cls-7" x="147.32" y="729.92" width="27.71" height="27.71"/>
      <rect class="cls-7" x="175.02" y="729.92" width="27.71" height="27.71"/>
      <rect class="cls-7" x="202.73" y="729.92" width="27.71" height="27.71"/>
      <rect class="cls-7" x="230.44" y="729.92" width="27.71" height="27.71"/>
      <rect class="cls-7" x="258.14" y="729.92" width="27.71" height="27.71"/>
      <rect class="cls-7" x="285.85" y="729.92" width="27.71" height="27.71"/>
      <rect class="cls-7" x="313.56" y="729.92" width="27.71" height="27.71"/>
      <rect class="cls-7" x="341.26" y="729.92" width="27.71" height="27.71"/>
      <rect class="cls-7" x="368.97" y="729.92" width="27.71" height="27.71"/>
      <rect class="cls-7" x="396.68" y="729.92" width="27.71" height="27.71"/>
      <rect class="cls-7" x="424.38" y="729.92" width="27.71" height="27.71"/>
      <rect class="cls-7" x="452.09" y="729.92" width="27.71" height="27.71"/>
      <rect class="cls-7" x="479.8" y="729.92" width="27.71" height="27.71"/>
      <rect class="cls-7" x="507.5" y="729.92" width="27.71" height="27.71"/>
      <rect class="cls-7" x="535.21" y="729.92" width="27.71" height="27.71"/>
      <rect class="cls-7" x="562.92" y="729.92" width="27.71" height="27.71"/>
      <rect class="cls-7" x="590.62" y="729.92" width="27.71" height="27.71"/>
      <rect class="cls-7" x="618.33" y="729.92" width="27.71" height="27.71"/>
      <rect class="cls-7" x="646.03" y="729.92" width="27.71" height="27.71"/>
      <rect class="cls-8" x="91.91" y="633.09" width="195.94" height="15.26"/>
      <rect class="cls-9" x="604.47" y="1075.04" width="268.36" height="107.91"/>
      <line class="cls-10" x1="65.68" y1="1039.22" x2="900.3" y2="1039.22"/>
      <line class="cls-10" x1="65.68" y1="801.33" x2="900.3" y2="801.33"/>
      <rect class="cls-8" x="89.19" y="1083.11" width="325.73" height="15.26"/>
      <rect class="cls-8" x="89.19" y="1126.78" width="404.45" height="15.26"/>
      <rect class="cls-8" x="89.04" y="893.85" width="325.73" height="15.26"/>
      <rect class="cls-8" x="89.04" y="937.51" width="256.17" height="15.26"/>
      <rect class="cls-8" x="89.19" y="1170.44" width="372.56" height="15.26"/>
      <text class="cls-11" transform="translate(89.04 861.51)"><tspan class="cls-12">P</tspan><tspan class="cls-13" x="20.75" y="0">a</tspan><tspan x="38.75" y="0">yment amount</tspan></text>
      <path class="cls-14" d="M959.94,5.21v1274H6V5.21H959.94M966,0H0V1284.47H966V0Z"/>
      <text class="cls-15" transform="translate(87.5 1003.58)">https:<tspan class="cls-16" x="83.9" y="0">/</tspan><tspan class="cls-17" x="93.47" y="0">/</tspan><tspan x="105.89" y="0">g</tspan><tspan class="cls-18" x="123.71" y="0">o</tspan><tspan class="cls-19" x="141.31" y="0">v</tspan><tspan x="155.74" y="0">.uk</tspan><tspan class="cls-20" x="199.07" y="0">/</tspan><tspan class="cls-21" x="211.77" y="0">p</tspan><tspan class="cls-22" x="230.04" y="0">a</tspan><tspan x="246.33" y="0">yments</tspan><tspan class="cls-23" x="349.85" y="0">/</tspan><tspan x="362.3" y="0">servi</tspan><tspan class="cls-24" x="429.18" y="0">c</tspan><tspan x="445.69" y="0">e-name</tspan><tspan class="cls-25" x="551.73" y="0">/</tspan><tspan class="cls-26" x="564.44" y="0">p</tspan><tspan class="cls-27" x="582.71" y="0">a</tspan><tspan x="599" y="0">yment-link</tspan></text>
    </g>
    <rect class="cls-1" x="858.87" y="271.41" width="967.62" height="663.26"/>
    <path class="cls-14" d="M1826.4,934.65H858.53V274.26H1826.4m-974.76,0V940.57h981.57V274.28Z"/>
    <rect class="cls-28" x="858.87" y="318.37" width="967.62" height="81.87"/>
    <text class="cls-3" transform="translate(924.93 481.25)">Servi<tspan class="cls-4" x="109.32" y="0">c</tspan><tspan class="cls-29" x="134.35" y="0">e</tspan><tspan x="159.75" y="0" xml:space="preserve"> name: </tspan><tspan class="cls-30" x="314.32" y="0">P</tspan><tspan class="cls-31" x="342.49" y="0">a</tspan><tspan class="cls-32" x="366.92" y="0">y</tspan><tspan x="389.45" y="0"> </tspan><tspan class="cls-5" x="400.65" y="0">f</tspan><tspan x="417.3" y="0">o</tspan><tspan class="cls-33" x="444.41" y="0">r</tspan><tspan x="461.39" y="0"> </tspan><tspan class="cls-34" x="472.59" y="0">e</tspan><tspan class="cls-35" x="498.13" y="0">x</tspan><tspan x="522.14" y="0">ampl</tspan><tspan class="cls-36" x="628.59" y="0">e</tspan><tspan x="653.99" y="0" xml:space="preserve"> servi</tspan><tspan class="cls-37" x="768.63" y="0">c</tspan><tspan class="cls-36" x="793.66" y="0">e</tspan></text>
    <rect class="cls-8" x="924.34" y="762.12" width="325.73" height="15.26"/>
    <rect class="cls-8" x="924.34" y="523.12" width="602.31" height="15.26"/>
    <rect class="cls-8" x="924.34" y="609.32" width="325.73" height="15.26"/>
    <rect class="cls-8" x="924.34" y="563.38" width="724.31" height="15.26"/>
    <text class="cls-11" transform="translate(924.34 735.84)"><tspan class="cls-12">P</tspan><tspan class="cls-13" x="20.75" y="0">a</tspan><tspan x="38.75" y="0">yment amount</tspan></text>
    <rect class="cls-8" x="925.88" y="802.38" width="256.17" height="15.26"/>
    <text class="cls-15" transform="translate(924.34 874.12)">https:<tspan class="cls-16" x="83.9" y="0">/</tspan><tspan class="cls-17" x="93.47" y="0">/</tspan><tspan x="105.89" y="0">g</tspan><tspan class="cls-18" x="123.71" y="0">o</tspan><tspan class="cls-19" x="141.31" y="0">v</tspan><tspan x="155.74" y="0">.uk</tspan><tspan class="cls-20" x="199.07" y="0">/</tspan><tspan class="cls-21" x="211.77" y="0">p</tspan><tspan class="cls-22" x="230.04" y="0">a</tspan><tspan x="246.33" y="0">yments</tspan><tspan class="cls-23" x="349.85" y="0">/</tspan><tspan x="362.3" y="0">servi</tspan><tspan class="cls-24" x="429.18" y="0">c</tspan><tspan x="445.69" y="0">e-name</tspan><tspan class="cls-25" x="551.73" y="0">/</tspan><tspan class="cls-26" x="564.44" y="0">p</tspan><tspan class="cls-27" x="582.71" y="0">a</tspan><tspan x="599" y="0">yment-link</tspan></text>
    <g>
      <path class="cls-14" d="M851.65,320.63V275.17a10,10,0,0,1,10-10h961.58a10,10,0,0,1,10,10v45.46"/>
      <g>
        <circle class="cls-1" cx="886.84" cy="292.9" r="11.79"/>
        <circle class="cls-1" cx="919.77" cy="292.9" r="11.79"/>
        <circle class="cls-1" cx="952.7" cy="292.9" r="11.79"/>
      </g>
    </g>
    <path class="cls-38" d="M924.24,346v32.5H972.6V346Zm45.22,1.7-21,18.09-21-18.09Zm-43.51,1,15,12.92-15,14.06Zm1.31,28.09,15-14,6.15,5.29,6.15-5.29,15,14Zm43.65-1.11-15-14.06,15-12.92Z"/>
    <text class="cls-39" transform="translate(1006.27 378.47)"><tspan class="cls-40">E</tspan><tspan x="27.2" y="0">mai</tspan><tspan class="cls-41" x="100.25" y="0">l</tspan></text>
  </g>
</svg>
